<?xml version="1.0" standalone="no"?>
<!DOCTYPE svg PUBLIC "-//W3C//DTD SVG 20010904//EN"
 "http://www.w3.org/TR/2001/REC-SVG-20010904/DTD/svg10.dtd">
<svg version="1.0" xmlns="http://www.w3.org/2000/svg"
 width="300.000000pt" height="300.000000pt" viewBox="0 0 300.000000 300.000000"
 preserveAspectRatio="xMidYMid meet">
<metadata>
Created by potrace 1.11, written by Peter Selinger 2001-2013
</metadata>
<g transform="translate(0.000000,300.000000) scale(0.100000,-0.100000)"
fill="#000000" stroke="none">
<path d="M1320 2993 c-47 -6 -60 -19 -60 -59 0 -19 -5 -34 -11 -34 -8 0 -10
14 -6 40 6 45 17 43 -93 15 -44 -11 -45 -12 -51 -61 -3 -27 -5 -51 -3 -52 4
-6 117 29 130 39 6 5 13 6 16 3 8 -8 131 16 146 28 6 6 12 22 12 37 0 15 5 32
12 39 13 13 -14 14 -92 5z"/>
<path d="M1432 2988 c-7 -7 -12 -21 -12 -33 0 -12 -5 -26 -12 -33 -20 -20 -3
-24 72 -16 53 5 73 11 76 23 3 9 11 28 19 44 l14 27 -72 0 c-44 0 -78 -5 -85
-12z"/>
<path d="M1604 2988 c-16 -25 -44 -82 -41 -84 1 -1 32 -4 68 -5 65 -4 99 8 99
34 0 6 7 19 17 29 9 10 14 20 12 22 -2 2 -36 6 -76 10 -54 5 -73 4 -79 -6z"/>
<path d="M1762 2958 c-7 -7 -12 -17 -12 -24 0 -6 -7 -17 -15 -24 -8 -7 -15
-15 -15 -19 0 -4 32 -13 70 -20 39 -7 97 -24 130 -37 75 -30 95 -30 116 1 9
14 23 25 30 25 38 0 -15 32 -107 65 -11 4 -28 -5 -48 -27 -17 -18 -31 -27 -31
-20 0 6 9 21 21 33 11 11 19 23 16 25 -7 7 -108 34 -127 34 -9 0 -21 -5 -28
-12z"/>
<path d="M1015 2910 l-70 -27 0 -55 0 -56 55 25 c30 14 60 27 67 30 8 3 25
100 19 109 -1 0 -32 -11 -71 -26z"/>
<path d="M853 2830 c-35 -22 -63 -43 -63 -47 0 -5 6 -27 13 -50 l12 -42 57 37
57 37 -2 52 c-1 29 -4 53 -7 53 -3 0 -33 -18 -67 -40z"/>
<path d="M2070 2835 c-13 -14 -29 -25 -37 -25 -31 0 -9 -22 52 -52 l65 -32 27
26 c16 14 34 27 42 30 13 4 -100 78 -118 78 -4 0 -18 -11 -31 -25z"/>
<path d="M712 2738 c-42 -32 -52 -46 -48 -62 3 -12 9 -36 13 -53 l8 -33 58 47
c48 37 57 50 52 67 -4 12 -9 33 -12 49 -3 15 -8 27 -12 26 -3 0 -30 -19 -59
-41z"/>
<path d="M2207 2750 c-14 -11 -30 -20 -36 -20 -22 0 -9 -16 44 -52 56 -39 79
-46 91 -27 3 6 19 16 35 23 l28 12 -55 42 c-62 48 -71 50 -107 22z"/>
<path d="M1450 2679 c-25 -22 -79 -67 -121 -100 -131 -103 -189 -206 -196
-353 -4 -82 -2 -100 27 -185 17 -51 53 -141 80 -200 47 -103 81 -212 95 -303
l7 -44 66 4 c37 2 68 5 69 6 1 0 5 147 10 326 9 347 9 345 21 -57 5 -145 10
-264 13 -267 2 -2 33 -5 70 -8 60 -3 65 -2 66 17 4 55 59 253 68 243 1 -2 -8
-43 -21 -93 -12 -49 -23 -109 -23 -131 l-1 -41 63 -7 c34 -4 72 -10 85 -13 13
-3 22 -1 22 7 0 7 14 41 31 76 36 77 85 115 147 116 87 1 146 -67 139 -159
l-4 -53 52 0 c99 0 210 77 247 170 67 173 -9 370 -175 446 -52 24 -75 29 -142
29 -71 0 -88 -4 -149 -35 -90 -45 -173 -128 -222 -224 -21 -41 -40 -73 -41
-72 -2 2 17 46 42 99 55 117 95 252 95 318 0 110 -41 224 -111 302 -22 25 -77
75 -122 110 -45 36 -93 76 -106 91 -14 14 -27 26 -30 26 -3 -1 -26 -19 -51
-41z m827 -798 c-5 -23 -1 -31 19 -41 26 -14 22 -26 -11 -32 -13 -2 -22 -14
-26 -33 l-6 -30 -13 28 c-12 25 -19 28 -47 25 l-33 -4 22 23 c18 20 20 26 10
48 -17 36 -16 37 17 21 26 -14 30 -14 46 4 24 27 29 25 22 -9z"/>
<path d="M587 2632 c-26 -26 -47 -55 -47 -64 0 -13 14 -46 37 -87 5 -8 92 95
93 109 0 9 -7 25 -15 37 -8 12 -12 28 -9 37 11 29 -11 17 -59 -32z"/>
<path d="M2329 2647 l-45 -22 52 -48 c56 -50 68 -55 98 -32 11 8 29 15 40 15
16 0 9 11 -34 55 -30 30 -57 55 -60 55 -3 0 -26 -11 -51 -23z"/>
<path d="M476 2504 c-26 -31 -46 -62 -46 -69 0 -7 9 -24 20 -38 11 -14 20 -30
20 -36 0 -22 16 -9 53 43 43 62 44 69 18 103 -11 13 -17 31 -14 39 10 27 -6
14 -51 -42z"/>
<path d="M2433 2527 c-18 -6 -33 -14 -33 -17 1 -3 22 -29 49 -58 l48 -54 34
15 c19 7 40 12 47 10 20 -7 14 5 -29 62 -44 58 -54 62 -116 42z"/>
<path d="M377 2361 c-20 -34 -37 -66 -37 -70 0 -4 11 -18 25 -31 14 -13 25
-29 25 -37 0 -31 22 -9 52 52 l32 65 -26 27 c-14 16 -27 34 -30 42 -2 8 -20
-13 -41 -48z"/>
<path d="M2538 2397 l-36 -10 36 -59 37 -58 52 2 c29 2 53 4 53 6 0 7 -54 98
-68 115 -17 19 -21 19 -74 4z"/>
<path d="M297 2202 l-27 -67 37 -32 c46 -39 39 -52 -10 -19 l-36 25 -11 -37
c-5 -20 -13 -53 -16 -73 -6 -33 -3 -38 32 -60 22 -13 42 -25 45 -27 3 -1 12
30 19 70 7 40 16 79 21 88 5 8 18 40 30 70 l21 55 -31 27 c-17 15 -31 32 -31
38 0 27 -18 3 -43 -58z"/>
<path d="M2580 2254 c0 -4 53 -116 58 -124 2 -3 26 -5 53 -6 55 -1 53 -7 20
81 l-19 50 -56 1 c-31 0 -56 -1 -56 -2z"/>
<path d="M743 2092 c-181 -65 -274 -251 -218 -439 31 -105 146 -193 253 -193
l55 0 -6 34 c-13 80 31 156 103 174 79 20 160 -38 199 -142 10 -28 23 -51 27
-51 5 0 44 4 87 9 l77 8 -6 51 c-12 96 -44 202 -85 285 -104 212 -313 325
-486 264z m8 -216 c4 -4 16 -3 27 3 30 16 33 14 20 -13 -9 -22 -7 -28 17 -49
l28 -23 -36 4 c-31 3 -37 0 -50 -24 l-15 -28 -6 31 c-6 25 -14 33 -39 39 l-31
6 28 15 c23 12 27 20 24 44 -4 25 -2 27 11 16 9 -6 19 -16 22 -21z"/>
<path d="M2664 2043 c22 -67 23 -68 62 -71 21 -2 44 -8 51 -14 7 -6 13 -8 13
-4 0 17 -35 133 -43 144 -5 6 -31 12 -58 12 l-48 0 23 -67z"/>
<path d="M2696 1913 c14 -92 17 -97 65 -109 24 -6 45 -10 47 -9 2 1 0 33 -4
70 -7 72 -10 75 -82 88 l-33 7 7 -47z"/>
<path d="M216 1923 c-3 -15 -8 -49 -12 -75 l-6 -46 51 -25 51 -24 0 42 c0 23
3 56 6 73 6 28 3 33 -22 44 -16 6 -36 18 -46 26 -14 12 -17 10 -22 -15z"/>
<path d="M2718 1733 c2 -38 8 -72 13 -77 4 -5 24 -15 44 -22 l36 -12 -3 75 -3
76 -45 13 c-25 8 -45 14 -45 14 -1 0 1 -30 3 -67z"/>
<path d="M202 1703 l3 -77 49 -18 48 -17 -6 37 c-3 20 -6 54 -6 75 0 32 -4 39
-27 47 -16 6 -36 15 -46 20 -17 10 -18 5 -15 -67z"/>
<path d="M2710 1593 c0 -27 -3 -58 -6 -69 -5 -17 3 -26 42 -48 26 -14 48 -25
49 -24 1 2 6 36 9 76 l7 72 -46 20 c-26 11 -49 20 -51 20 -2 0 -4 -21 -4 -47z"/>
<path d="M206 1550 c9 -84 17 -100 55 -100 17 0 38 -4 48 -9 17 -9 17 -6 4 62
-14 75 -22 87 -63 87 -15 0 -32 6 -39 13 -10 10 -11 -1 -5 -53z"/>
<path d="M2680 1413 c-13 -66 -13 -67 11 -85 13 -10 31 -25 40 -33 15 -14 18
-10 33 43 23 85 22 95 -21 117 -21 11 -41 21 -44 22 -3 2 -11 -27 -19 -64z"/>
<path d="M1268 1460 c-130 -15 -195 -41 -185 -74 5 -19 69 -44 137 -55 85 -14
437 -14 537 0 183 25 203 87 38 119 -77 15 -427 21 -527 10z m527 -58 c64 -12
22 -21 -164 -32 -114 -8 -212 -8 -309 -1 -150 11 -206 24 -142 35 19 3 46 8
60 10 40 7 511 -3 555 -12z"/>
<path d="M227 1412 c3 -15 12 -47 18 -72 l11 -45 55 -6 c30 -3 55 -5 56 -5 0
1 -9 31 -20 69 -23 70 -21 69 -95 81 -31 5 -32 4 -25 -22z"/>
<path d="M2635 1263 l-29 -66 27 -21 c15 -12 27 -27 27 -34 0 -30 23 -7 52 53
l33 66 -38 34 c-21 19 -39 35 -41 35 -2 0 -16 -30 -31 -67z"/>
<path d="M1748 1307 c-79 -11 -81 -16 -50 -109 38 -116 96 -183 165 -195 81
-13 174 45 197 125 7 23 11 44 8 47 -3 3 -27 0 -54 -6 -84 -19 -137 15 -169
108 -7 21 -17 38 -21 39 -5 1 -39 -3 -76 -9z"/>
<path d="M1151 1271 c-30 -103 -111 -138 -215 -96 -16 7 -18 5 -11 -26 17 -77
66 -130 137 -150 107 -28 195 48 240 210 10 36 18 69 18 72 0 4 -24 10 -52 14
-29 3 -65 8 -79 11 -23 4 -27 0 -38 -35z"/>
<path d="M1335 1263 c-15 -70 -49 -162 -77 -208 -30 -48 -30 -50 -13 -81 49
-92 168 -204 232 -221 49 -12 222 124 267 209 l20 36 -46 90 c-25 49 -52 115
-59 146 l-12 56 -69 0 -68 0 -1 -87 c-1 -49 -4 -113 -8 -143 -6 -50 -8 -44
-15 65 -4 66 -8 129 -9 140 -2 17 -10 20 -69 23 -67 3 -67 3 -73 -25z"/>
<path d="M270 1269 c0 -11 43 -114 53 -127 7 -9 24 -11 56 -6 25 4 47 7 48 9
2 1 -10 29 -26 62 l-30 61 -50 3 c-28 2 -51 1 -51 -2z"/>
<path d="M2569 1116 l-34 -65 26 -28 c15 -15 29 -35 31 -43 5 -16 78 101 78
125 0 8 -11 22 -25 31 -14 9 -25 23 -25 30 0 30 -19 11 -51 -50z"/>
<path d="M382 1120 c-12 -5 -29 -7 -38 -3 -20 7 -19 5 25 -71 l34 -58 51 7
c28 3 52 8 54 10 7 7 -79 125 -91 124 -7 0 -22 -4 -35 -9z"/>
<path d="M2486 987 c-40 -58 -44 -78 -20 -98 9 -7 19 -22 23 -33 7 -17 13 -12
49 36 47 62 51 77 22 103 -11 10 -20 24 -20 32 0 26 -18 12 -54 -40z"/>
<path d="M480 980 c-8 -5 -25 -10 -37 -10 -13 0 -23 -2 -23 -5 0 -3 19 -30 43
-60 36 -48 46 -55 67 -50 14 3 37 9 53 12 15 3 27 8 27 11 0 11 -92 112 -103
112 -7 0 -19 -5 -27 -10z"/>
<path d="M2381 861 c-45 -54 -48 -66 -26 -98 8 -12 12 -29 8 -40 -3 -10 19 5
49 32 31 28 56 58 57 67 1 19 -30 87 -41 88 -3 0 -25 -22 -47 -49z"/>
<path d="M579 851 c-19 -10 -40 -16 -46 -14 -7 3 -13 2 -13 -1 0 -7 99 -100
111 -104 11 -4 88 30 89 39 0 4 -24 27 -54 52 l-53 46 -34 -18z"/>
<path d="M2260 750 c-30 -27 -58 -49 -63 -50 -4 0 -32 -16 -62 -36 l-54 -36 2
-53 2 -54 55 31 c82 46 86 51 72 91 -14 40 -15 47 -4 47 14 0 32 -49 25 -67
-5 -14 0 -13 28 8 19 14 46 34 61 45 15 10 28 25 28 32 0 17 -24 92 -30 92 -3
0 -30 -22 -60 -50z"/>
<path d="M700 741 c-14 -10 -34 -20 -44 -22 -15 -3 -8 -13 37 -46 30 -23 60
-44 65 -45 10 -3 91 43 92 52 0 5 -114 80 -121 80 -2 0 -15 -9 -29 -19z"/>
<path d="M830 640 c-6 -11 -20 -20 -30 -20 -11 0 -20 -3 -20 -7 0 -10 115 -73
132 -73 13 1 83 59 76 65 -15 13 -111 55 -127 55 -11 0 -25 -9 -31 -20z"/>
<path d="M1994 591 l-62 -29 -4 -48 c-3 -27 -4 -50 -3 -51 2 -4 124 43 132 51
9 8 12 106 3 106 -3 -1 -33 -14 -66 -29z"/>
<path d="M1665 599 c-16 -7 -61 -34 -99 -61 -97 -70 -122 -77 -208 -60 l-70
14 -29 -28 c-16 -15 -29 -32 -29 -36 0 -14 61 -36 117 -44 45 -5 52 -4 56 12
4 17 5 17 6 2 1 -15 10 -18 48 -18 52 0 118 28 153 64 l22 25 -21 27 c-32 40
-25 53 8 14 28 -34 28 -34 55 -17 15 10 42 20 61 22 41 6 115 34 115 45 0 4
-9 15 -20 25 -25 22 -120 30 -165 14z m-248 -171 c-3 -8 -6 -5 -6 6 -1 11 2
17 5 13 3 -3 4 -12 1 -19z"/>
<path d="M1257 585 c-46 -16 -96 -49 -119 -80 -16 -21 -16 -24 0 -55 29 -58
43 -58 95 -4 26 27 47 59 47 71 0 12 5 34 10 49 6 15 9 28 8 29 -2 2 -20 -3
-41 -10z"/>
<path d="M1331 574 c-12 -15 -21 -37 -21 -50 0 -20 5 -24 33 -24 17 0 55 -3
82 -6 40 -4 55 -1 75 15 l25 20 -24 25 c-47 50 -138 60 -170 20z"/>
<path d="M976 566 c-9 -14 -23 -26 -31 -26 -31 0 -13 -18 44 -44 32 -14 64
-26 72 -26 11 0 84 71 77 74 -17 8 -108 39 -124 43 -14 3 -26 -3 -38 -21z"/>
<path d="M1826 530 c-38 -16 -73 -33 -77 -37 -3 -5 -9 -29 -12 -55 -6 -59 0
-60 95 -17 66 31 68 33 68 70 0 20 3 44 6 53 8 22 0 20 -80 -14z"/>
<path d="M1684 471 c-32 -8 -114 -67 -114 -83 0 -4 8 -8 18 -8 9 0 33 -3 52
-6 26 -4 41 -1 57 13 22 18 43 94 27 92 -5 -1 -23 -4 -40 -8z"/>
<path d="M1095 405 c-7 -50 0 -95 21 -137 13 -25 20 -28 63 -28 60 0 80 18 51
45 -11 10 -25 35 -32 56 -6 22 -19 41 -30 45 -10 3 -25 19 -33 35 -21 41 -32
36 -40 -16z"/>
<path d="M1855 417 c-29 -15 -40 -27 -37 -40 2 -10 -2 -24 -8 -32 -9 -11 -2
-19 39 -39 28 -15 52 -26 54 -26 13 0 28 64 25 106 -4 58 -15 63 -73 31z"/>
<path d="M1238 363 c-34 -5 -34 -5 -6 -47 20 -30 29 -35 73 -38 45 -4 54 -1
88 29 40 36 40 36 -33 52 -46 11 -73 11 -122 4z"/>
<path d="M1585 341 l-40 -18 46 -20 c26 -11 50 -26 53 -32 11 -16 73 -13 102
5 13 9 38 19 56 23 l31 6 -51 28 c-60 33 -136 36 -197 8z"/>
<path d="M1418 303 c-42 -28 -48 -43 -19 -43 10 0 50 -16 89 -36 76 -38 88
-37 127 6 l20 22 -30 24 c-31 24 -106 54 -134 53 -9 0 -33 -12 -53 -26z"/>
<path d="M1019 248 c-46 -50 -48 -61 -13 -52 18 5 34 0 56 -16 l30 -22 26 25
25 25 -22 27 c-11 15 -21 34 -21 41 0 28 -43 13 -81 -28z"/>
<path d="M1762 274 c-13 -9 -22 -19 -20 -23 2 -3 26 -28 55 -55 50 -46 53 -47
75 -32 12 9 34 16 48 16 25 -1 25 -1 -5 -15 -60 -27 -62 -31 -35 -59 29 -32
33 -32 76 1 39 32 42 39 14 48 -11 4 -18 11 -14 16 8 13 -53 87 -87 104 -37
19 -79 19 -107 -1z"/>
<path d="M1258 240 c-2 -7 -25 -14 -51 -17 -26 -3 -47 -9 -47 -12 0 -4 19 -19
42 -34 55 -35 100 -36 127 -1 24 30 28 64 7 64 -7 0 -27 3 -44 6 -19 4 -31 2
-34 -6z"/>
<path d="M1366 226 c4 -17 0 -35 -11 -52 -33 -51 21 -55 103 -8 23 14 42 29
42 35 0 12 -62 39 -107 46 -33 6 -34 5 -27 -21z"/>
<path d="M1617 213 c-20 -22 -37 -42 -37 -45 0 -12 63 -28 109 -28 39 0 59 7
99 35 2 2 -11 16 -27 33 -19 18 -46 33 -68 37 -35 5 -41 2 -76 -32z"/>
<path d="M960 170 c-12 -8 -9 -16 22 -47 l38 -38 27 27 c26 27 26 28 8 48 -19
21 -69 27 -95 10z"/>
<path d="M930 133 c0 -13 53 -63 67 -63 20 0 16 14 -15 43 -27 26 -52 35 -52
20z"/>
<path d="M895 106 c-17 -12 -17 -15 15 -55 18 -22 37 -41 41 -41 4 0 15 10 23
22 15 21 14 24 -16 55 -36 38 -37 38 -63 19z"/>
<path d="M1951 94 c-17 -14 -31 -30 -31 -35 0 -16 23 -10 49 13 26 23 26 22
-1 -7 -23 -26 -25 -32 -13 -48 17 -24 42 -16 73 24 20 24 22 32 12 44 -7 8
-19 15 -26 15 -8 0 -14 5 -14 10 0 17 -17 11 -49 -16z"/>
</g>
</svg>
